HIERARCHY
ROOT Hips
{
  OFFSET 0 0 0
  CHANNELS 6 Xposition Yposition Zposition Zrotation Yrotation Xrotation
  JOINT LeftThigh
  {
    OFFSET 8.409438 0 -5.917753
    CHANNELS 3 Zrotation Yrotation Xrotation
    JOINT LeftLeg
    {
      OFFSET 0 0 -42.358652
      CHANNELS 3 Zrotation Yrotation Xrotation
      JOINT LeftFoot
      {
        OFFSET 0 0 -39.357303
        CHANNELS 3 Zrotation Yrotation Xrotation
      }
    }
  }
  JOINT RightThigh
  {
    OFFSET -8.409438 0 -5.917753
    CHANNELS 3 Zrotation Yrotation Xrotation
    JOINT RightLeg
    {
      OFFSET 0 0 -42.358652
      CHANNELS 3 Zrotation Yrotation Xrotation
      JOINT RightFoot
      {
        OFFSET 0 0 -39.357303
        CHANNELS 3 Zrotation Yrotation Xrotation
      }
    }
  }
  JOINT SpineLow
  {
    OFFSET 0 0 4.719101
    CHANNELS 3 Zrotation Yrotation Xrotation
    JOINT SpineMid
    {
      OFFSET 0 0 12.899191
      CHANNELS 3 Zrotation Yrotation Xrotation
      JOINT Chest
      {
        OFFSET 0 0 12.899191
        CHANNELS 3 Zrotation Yrotation Xrotation
        JOINT LeftShoulder
        {
          OFFSET 7.550562 1.41573 9.438202
          CHANNELS 3 Zrotation Yrotation Xrotation
          JOINT LeftArm
          {
            OFFSET 9.155056 0 4.247191
            CHANNELS 3 Zrotation Yrotation Xrotation
            JOINT LeftForearm
            {
              OFFSET 0 0 25.771955
              CHANNELS 3 Zrotation Yrotation Xrotation
              JOINT LeftHand
              {
                OFFSET 0 0 25.197169
                CHANNELS 3 Zrotation Yrotation Xrotation
              }
            }
          }
        }
        JOINT RightShoulder
        {
          OFFSET -7.550562 1.41573 9.438202
          CHANNELS 3 Zrotation Yrotation Xrotation
          JOINT RightArm
          {
            OFFSET -9.155056 0 4.247191
            CHANNELS 3 Zrotation Yrotation Xrotation
            JOINT RightForearm
            {
              OFFSET 0 0 -25.771955
              CHANNELS 3 Zrotation Yrotation Xrotation
              JOINT RightHand
              {
                OFFSET 0 0 -25.197169
                CHANNELS 3 Zrotation Yrotation Xrotation
              }
            }
          }
        }
        JOINT Neck
        {
          OFFSET 0 0 15.101124
          CHANNELS 3 Zrotation Yrotation Xrotation
          JOINT Head
          {
            OFFSET 0 0 11.325843
            CHANNELS 3 Zrotation Yrotation Xrotation
            End Site
            {
              OFFSET 0 0 14.157303
            }
          }
        }
      }
    }
  }
}
MOTION
Frames: 8
Frame Time: 0.0
0.0  101.685394  0.0  5.697819  -1.620919  -116.262376  44.732945  -26.125978  -91.635492  51.518838  44.305907  125.57506  -3.359509  -7.534307  -1.951256  -17.463598  5.150086  -9.660915  17.747353  9.864937  27.743414  30.548316  -5.599172  5.24872  -2.148704  2.585635  4.859494  -5.346862  7.460631  13.09155  -5.346861  7.460631  13.091549  3.592627  1.45362  10.752066  -74.284133  84.533191  -28.473937  -50.084605  -42.273416  70.571771  55.509011  -15.35462  -5.831851  43.026644  8.208803  6.798611  -165.345022  84.327838  144.325255  -55.38562  -0.741986  -77.552672  98.487832  -28.882587  15.247903  7.002099  -0.897983  -1.973434  5.248632  -0.696216  -1.469984  
0.0  101.685394  0.0  5.70199  -1.082635  -116.528414  45.230233  -25.704188  -94.165857  52.265659  44.995469  123.717072  -3.60053  -8.274144  -1.117505  -17.228297  5.500977  -8.707978  17.706901  9.941031  27.15829  30.26749  -5.55153  5.090795  -2.210223  2.516243  4.707087  -5.545487  7.27202  12.670334  -5.545486  7.27202  12.670335  4.674962  4.093398  12.009648  -142.155867  86.436468  -95.092025  -52.57827  -43.59568  76.881729  55.260262  -14.87626  -3.909155  41.796357  6.504884  8.756998  148.467422  85.551389  94.110916  -55.115608  3.039427  -81.040075  96.094799  -29.164836  21.483316  7.19804  -0.589323  -0.824457  5.397699  -0.451779  -0.611496  
0.0  101.685394  0.0  5.65548  -0.476337  -116.724896  45.282903  -25.941234  -96.206151  52.998915  45.605274  121.726387  -3.744168  -8.701105  -0.655413  -16.457798  5.859179  -7.867235  16.626665  10.183645  26.578531  30.243271  -5.552392  4.988893  -2.248403  2.442435  4.57321  -5.678146  7.067687  12.303369  -5.678146  7.067687  12.303368  5.364731  6.389248  12.676696  165.880263  82.425376  -146.097888  -54.190751  -43.968678  81.904768  55.665738  -14.225893  -0.95881  40.070841  4.80452  10.592298  115.421161  82.310928  57.007328  -54.657508  7.118118  -84.176309  94.073208  -30.375578  25.817675  7.149119  -0.479073  0.112058  5.361896  -0.358052  0.089663  
0.0  101.685394  0.0  5.642874  0.057477  -117.066576  44.985747  -26.58986  -97.492971  53.444919  45.928944  119.513126  -3.773072  -9.004026  -0.32913  -15.860937  6.157626  -6.912292  15.657949  10.467421  26.064433  29.948747  -5.440363  4.919521  -2.398318  2.35155  4.412109  -6.12114  6.833794  11.851411  -6.12114  6.833794  11.85141  6.60477  8.814952  14.303062  154.130077  76.937461  -156.998839  -55.223239  -43.136911  85.506158  56.675271  -13.434884  3.321456  39.122617  3.184718  13.322016  110.003963  77.364377  47.59983  -54.408019  11.137265  -86.35612  93.491463  -32.789138  26.779776  7.431872  -0.251759  0.94591  5.5743  -0.177347  0.712618  
0.0  101.685394  0.0  5.637505  0.523488  -117.248291  44.639171  -26.601637  -98.253902  53.08372  45.95262  117.27322  -4.097306  -9.363881  0.087284  -15.452636  6.417173  -6.180006  14.749427  10.684085  25.638431  29.959467  -5.389157  4.931037  -2.47622  2.258708  4.263644  -6.365112  6.581318  11.443112  -6.365112  6.581317  11.443112  7.067436  11.286646  16.608867  150.267894  72.215463  -159.963358  -55.334738  -41.35476  87.223185  57.833867  -12.452004  8.395487  37.641872  1.532756  16.694833  112.267347  72.44554  45.550403  -53.942952  15.367403  -87.196648  92.609083  -35.725574  26.68965  7.455566  -0.111793  1.437721  5.591972  -0.066316  1.079845  
0.0  101.685394  0.0  5.68934  1.031814  -117.336108  44.246248  -25.816726  -98.577813  52.052936  45.696186  115.43916  -4.92583  -9.72965  0.568004  -15.331834  6.762689  -5.71947  13.991918  10.818075  25.356551  29.720623  -5.248014  4.948495  -2.575136  2.151596  4.107214  -6.668357  6.291567  11.01298  -6.668358  6.291567  11.01298  7.529223  13.965525  19.223427  149.434121  68.110744  -160.432324  -54.662292  -38.290732  87.844776  60.136553  -10.925129  13.47668  37.171427  -0.036002  20.484251  114.518667  67.562285  44.520602  -52.602005  19.374264  -86.860319  89.435391  -38.053378  28.923661  7.547709  0.157681  1.743124  5.660383  0.139817  1.305632  
0.0  101.685394  0.0  5.669972  1.238806  -117.531694  44.253741  -25.170548  -98.883911  51.080995  45.280641  114.418172  -6.274921  -9.855537  0.917202  -15.481698  7.002626  -5.359588  13.692986  10.785139  25.313004  29.777481  -5.214656  5.045624  -2.578887  2.032568  3.995782  -6.707664  5.957333  10.717288  -6.707663  5.957333  10.717288  7.844255  16.935344  21.589388  148.480505  64.414981  -161.746476  -53.608588  -34.883424  87.987681  63.759835  -8.947537  18.339151  36.717518  -1.558499  24.274133  117.052808  62.547904  44.164883  -50.324659  22.920912  -85.000982  84.405192  -39.182312  33.350182  7.525635  0.4317  1.808639  5.642981  0.346114  1.3514  
0.0  101.685394  0.0  5.574116  1.399879  -117.732663  44.482882  -24.888595  -99.288293  50.787582  45.039975  114.381472  -7.383977  -9.755636  1.159822  -16.243673  7.172139  -5.211433  13.728545  10.761923  25.424809  29.945027  -5.196146  5.169273  -2.568804  1.948476  3.97986  -6.694295  5.72524  10.681645  -6.694295  5.72524  10.681645  8.349566  19.571395  23.428503  146.942118  61.298068  -162.734946  -52.340152  -32.439861  86.767232  68.064175  -7.217254  22.366751  36.426602  -2.971218  27.61503  119.23246  57.927035  44.048373  -47.193174  25.798548  -81.87875  78.91466  -39.684619  38.51059  7.543892  0.608917  1.387226  5.656518  0.473901  1.033079  
